<?xml version="1.0" encoding="UTF-8" standalone="no"?>
<svg
   version="1.1"
   width="35"
   height="27"
   viewBox="0 0 35 26.999935"
   enable-background="new 0 0 56.00 41.00"
   xml:space="preserve"
   id="svg32"
   sodipodi:docname="VagabondK Document.svg"
   inkscape:version="1.3.2 (091e20e, 2023-11-25, custom)"
   inkscape:export-filename="D:\Users\bruce7615\OneDrive\VagabondK_256x256.png"
   inkscape:export-xdpi="96"
   inkscape:export-ydpi="96"
   xmlns:inkscape="http://www.inkscape.org/namespaces/inkscape"
   xmlns:sodipodi="http://sodipodi.sourceforge.net/DTD/sodipodi-0.dtd"
   xmlns="http://www.w3.org/2000/svg"
   xmlns:svg="http://www.w3.org/2000/svg"
   xmlns:rdf="http://www.w3.org/1999/02/22-rdf-syntax-ns#"
   xmlns:cc="http://creativecommons.org/ns#"
   xmlns:dc="http://purl.org/dc/elements/1.1/"><metadata
   id="metadata38"><rdf:RDF><cc:Work
       rdf:about=""><dc:format>image/svg+xml</dc:format><dc:type
         rdf:resource="http://purl.org/dc/dcmitype/StillImage" /></cc:Work></rdf:RDF></metadata><defs
   id="defs36" /><sodipodi:namedview
   inkscape:document-rotation="0"
   pagecolor="#ffffff"
   bordercolor="#666666"
   borderopacity="1"
   objecttolerance="10"
   gridtolerance="10"
   guidetolerance="10"
   inkscape:pageopacity="0"
   inkscape:pageshadow="2"
   inkscape:window-width="1920"
   inkscape:window-height="1017"
   id="namedview34"
   showgrid="false"
   units="in"
   inkscape:zoom="16"
   inkscape:cx="15.53125"
   inkscape:cy="14.84375"
   inkscape:window-x="-8"
   inkscape:window-y="-8"
   inkscape:window-maximized="1"
   inkscape:current-layer="svg32"
   inkscape:snap-grids="true"
   inkscape:showpageshadow="0"
   inkscape:pagecheckerboard="1"
   inkscape:deskcolor="#d1d1d1"><inkscape:grid
     type="xygrid"
     id="grid863"
     units="px"
     spacingx="4"
     spacingy="3.9999903"
     originx="0"
     originy="6.5960143e-05"
     visible="false" /></sodipodi:namedview>
	
	
	
	
	
	
	<g
   id="g1"
   transform="matrix(0.13235398,0,0,0.13235398,0,-2.1257328e-4)"><rect
     ry="16"
     style="fill:#000000;fill-opacity:1;fill-rule:evenodd;stroke:none;stroke-width:3.77952;stroke-linecap:round;stroke-linejoin:round"
     id="rect901"
     width="264"
     height="204"
     x="0"
     y="-0.000245" /><g
     id="g899"
     transform="matrix(4,0,0,4,-60,-59.999004)"><g
       transform="translate(19.999995,19.998306)"
       id="g18"
       style="fill:#ffffff;fill-opacity:1">
		<path
   id="path2"
   d="M 6.79192,31.9955 5.42338,40.9969 H 1.49472 L -1.07134e-7,31.9955 H 2.79667 c 0.23722,2.417 0.43697,4.6095 0.59928,6.3551 0.16369,-1.7629 0.31074,-3.302 0.44114,-4.6169 l 0.15816,-1.7382 z"
   stroke-linejoin="round"
   stroke-width="0.2"
   fill-opacity="1"
   fill="#000000"
   style="fill:#ffffff;fill-opacity:1" />
		<path
   id="path4"
   d="m 11.7527,31.9955 1.5613,9.0014 h -2.83 l -0.138,-1.667 H 9.36385 l -0.14499,1.667 H 6.38889 l 1.43513,-9.0014 z m -1.5149,5.7787 C 10.1365,36.7624 10.0089,35.4903 9.85493,33.9577 9.61771,35.7113 9.44569,36.9836 9.33888,37.7742 Z"
   stroke-linejoin="round"
   stroke-width="0.2"
   fill-opacity="1"
   fill="#000000"
   style="fill:#ffffff;fill-opacity:1" />
		<path
   id="path6"
   d="m 20.0428,35.3294 h -2.7967 v -0.7797 c 0,-0.4919 -0.0194,-0.7998 -0.0582,-0.9237 -0.0389,-0.1239 -0.1318,-0.1858 -0.2789,-0.1858 -0.1276,0 -0.2143,0.0535 -0.2601,0.1607 -0.0458,0.107 -0.0686,0.3828 -0.0686,0.8272 v 4.1691 c 0,0.3901 0.0249,0.6468 0.0749,0.77 0.0499,0.1233 0.1498,0.185 0.2996,0.185 0.1651,0 0.2771,-0.068 0.3361,-0.2041 0.0589,-0.136 0.0884,-0.4002 0.0884,-0.7926 v -1.0036 h -0.5327 v -1.3335 h 3.1962 v 4.7799 h -1.6834 l -0.2476,-0.7429 c -0.1845,0.272 -0.4169,0.4636 -0.6971,0.5747 -0.2802,0.1112 -0.6111,0.1668 -0.9926,0.1668 -0.4536,0 -0.8785,-0.0918 -1.2745,-0.2753 -0.3961,-0.1835 -0.6968,-0.4103 -0.9021,-0.6807 -0.2053,-0.2702 -0.3336,-0.5539 -0.3849,-0.8507 -0.0514,-0.297 -0.077,-0.7423 -0.077,-1.3362 v -2.5663 c 0,-0.8254 0.0534,-1.4247 0.1602,-1.798 0.1068,-0.3733 0.4131,-0.7157 0.9187,-1.027 0.5057,-0.3115 1.1594,-0.4672 1.9612,-0.4672 0.7894,0 1.4441,0.1341 1.9643,0.402 0.5203,0.268 0.8594,0.5863 1.0176,0.955 0.1581,0.3687 0.2372,0.9044 0.2372,1.607 z"
   stroke-linejoin="round"
   stroke-width="0.2"
   fill-opacity="1"
   fill="#000000"
   style="fill:#ffffff;fill-opacity:1" />
		<path
   id="path8"
   d="m 25.8692,31.9948 1.5648,9.0035 h -2.83 l -0.1415,-1.6684 h -0.9821 l -0.1415,1.6684 h -2.83 l 1.4316,-9.0035 z m -1.5149,5.7794 c -0.1012,-1.0118 -0.2289,-2.2839 -0.3828,-3.8165 -0.2373,1.7536 -0.4093,3.0259 -0.5161,3.8165 z"
   stroke-linejoin="round"
   stroke-width="0.2"
   fill-opacity="1"
   fill="#000000"
   style="fill:#ffffff;fill-opacity:1" />
		<path
   id="path10"
   d="m 27.9001,31.9948 h 2.7676 c 0.8739,0 1.536,0.0561 1.9861,0.1684 0.4502,0.1123 0.8137,0.452 1.0904,0.7952 0.2768,0.3432 0.4151,0.8956 0.4151,1.6573 0,0.5163 -0.1061,0.876 -0.3183,1.0792 -0.2123,0.2031 -0.6305,0.3591 -1.2548,0.4679 0.6132,0.1192 1.0286,0.3166 1.2464,0.5921 0.2178,0.2755 0.3267,0.698 0.3267,1.2676 v 0.8091 c 0,0.5915 -0.0797,1.0293 -0.2393,1.3136 -0.1595,0.2841 -0.4141,0.4786 -0.7636,0.5834 -0.3496,0.1047 -1.0647,0.2697 -2.1454,0.2697 h -3.1109 z m 2.7967,1.5565 v 2.0003 c 0.0874,-0.0035 0.1547,-0.0052 0.2018,-0.0052 0.1998,0 0.3271,-0.0564 0.3819,-0.1693 0.0548,-0.1128 0.0822,-0.4361 0.0822,-0.9697 0,-0.2813 -0.0226,-0.4786 -0.0677,-0.5921 -0.045,-0.1135 -0.1037,-0.1849 -0.1758,-0.2144 -0.0721,-0.0296 -0.2129,-0.046 -0.4224,-0.0496 z m 0,3.3339 v 2.5559 c 0.2858,-0.0116 0.4682,-0.0643 0.5473,-0.158 0.079,-0.0938 0.1186,-0.3253 0.1186,-0.6946 v -0.8508 c 0,-0.3912 -0.0354,-0.6283 -0.1062,-0.711 -0.0707,-0.0828 -0.2573,-0.13 -0.5597,-0.1415 z"
   stroke-linejoin="round"
   stroke-width="0.2"
   fill-opacity="1"
   fill="#000000"
   style="fill:#ffffff;fill-opacity:1" />
		<path
   id="path12"
   d="m 41.484,37.2359 c 0,0.867 -0.0247,1.4811 -0.0739,1.8423 -0.0493,0.3611 -0.2036,0.691 -0.463,0.9897 -0.2594,0.2986 -0.6097,0.5281 -1.0508,0.6885 -0.4412,0.1603 -0.9552,0.2405 -1.542,0.2405 -0.5562,0 -1.0563,-0.0756 -1.5003,-0.2267 -0.4439,-0.151 -0.8007,-0.3779 -1.0706,-0.6806 -0.2698,-0.3028 -0.4303,-0.6317 -0.4817,-0.9871 -0.0513,-0.3554 -0.077,-0.9776 -0.077,-1.8666 v -1.4794 c 0,-0.8671 0.0247,-1.4811 0.0739,-1.8423 0.0493,-0.3611 0.2036,-0.691 0.463,-0.9897 0.2594,-0.2986 0.6097,-0.565 1.0508,-0.7254 0.4412,-0.1602 0.9551,-0.2036 1.5419,-0.2036 0.5563,0 1.0564,0.0387 1.5003,0.1898 0.444,0.151 0.8008,0.4148 1.0706,0.7175 0.2699,0.3027 0.4304,0.6317 0.4818,0.9871 0.0513,0.3554 0.077,0.9776 0.077,1.8666 z m -2.7967,-2.8511 c 0,-0.404 -0.0212,-0.6624 -0.0635,-0.7753 -0.0423,-0.1129 -0.1287,-0.1693 -0.2591,-0.1693 -0.1109,0 -0.1959,0.0457 -0.2549,0.1372 -0.0589,0.0914 -0.0884,0.3605 -0.0884,0.8074 v 4.0561 c 0,0.5047 0.0194,0.8161 0.0583,0.9341 0.0388,0.1181 0.129,0.1772 0.2705,0.1772 0.1443,0 0.2365,-0.068 0.2767,-0.2041 0.0403,-0.136 0.0604,-0.4598 0.0604,-0.9715 z"
   stroke-linejoin="round"
   stroke-width="0.2"
   fill-opacity="1"
   fill="#000000"
   style="fill:#ffffff;fill-opacity:1" />
		<path
   id="path14"
   d="m 48.6754,31.9948 v 9.0053 h -2.3971 l -1.3318,-4.1046 v 4.1046 h -2.3971 v -9.0053 h 2.1308 l 1.5981,4.0655 v -4.0655 z"
   stroke-linejoin="round"
   stroke-width="0.2"
   fill-opacity="1"
   fill="#000000"
   style="fill:#ffffff;fill-opacity:1" />
		<path
   id="path16"
   d="m 49.7408,31.9948 h 2.0226 c 1.3054,0 2.188,0.0507 2.6479,0.152 0.4598,0.1012 0.8098,0.3795 1.0498,0.6111 0.24,0.2314 0.3898,0.489 0.4494,0.7726 C 55.9702,33.8141 56,34.3714 56,35.2026 v 3.0751 c 0,0.7883 -0.0437,1.3153 -0.1311,1.581 -0.0874,0.2656 -0.2403,0.4734 -0.4588,0.6233 -0.2185,0.1499 -0.6783,0.3194 -0.9994,0.3791 -0.3212,0.0596 -0.615,0.139 -1.2615,0.139 h -3.4084 z m 2.7967,1.5565 v 5.8898 c 0.3038,0 0.4907,-0.0675 0.5608,-0.2023 0.07,-0.1349 0.105,-0.5004 0.105,-1.0965 v -3.4797 c 0,-0.4051 -0.0118,-0.665 -0.0353,-0.7796 -0.0236,-0.1146 -0.077,-0.1985 -0.1603,-0.2518 -0.0832,-0.0533 -0.24,-0.0799 -0.4702,-0.0799 z"
   stroke-linejoin="round"
   stroke-width="0.2"
   fill-opacity="1"
   fill="#000000"
   style="fill:#ffffff;fill-opacity:1" />
	</g><path
       id="path920"
       style="fill:#ffffff;fill-opacity:1;fill-rule:evenodd;stroke:none;stroke-width:1.88976;stroke-linecap:round;stroke-linejoin:round"
       d="m 128,76 c -17.67311,0 -32,14.326888 -32,32 0,17.67311 14.32689,32 32,32 17.67311,0 32,-14.32689 32,-32 0,-17.673112 -14.32689,-32 -32,-32 z m -20,8 h 11 v 24 l 16,-24 h 13 l -16,24 16,24 h -13 l -16,-24 v 24 h -11 z"
       transform="matrix(0.25,0,0,0.25,16,7.99969)"
       sodipodi:nodetypes="ssssscccccccccccc" /><path
       id="path24"
       d="m 75.999995,19.999202 v 30.001804 l -5,-0.0025 2,-2 v -25.00004 l -45,7.4e-4 1e-5,1.99932 19.90879,-6e-5 c -2.7614,0.02466 -5.2555,1.16858 -7.0507,3.00006 l -15.8581,-6e-5 v -8.00018 z"
       stroke-linejoin="round"
       stroke-width="0.2"
       fill-opacity="1"
       fill="#000000"
       style="fill:#ffffff;fill-opacity:0.995968" /><path
       id="path26"
       d="m 65.999995,24.998466 v 12.00004 h 2 v -12.00077 h 3 v 15.00077 h -8 v -12.00004 l -4.0433,1.3e-4 c 1.2935,2.02061 2.0433,4.42251 2.0433,6.99971 0,1.7719 -0.3545,3.461 -0.9964,5.0002 h -3.3415 c 0.8509,-1.471 1.3379,-3.1787 1.3379,-5.0003 0,-5.49247 -4.4278,-9.95079 -9.9088,-9.99974 z"
       stroke-linejoin="round"
       stroke-width="0.2"
       fill-opacity="1"
       fill="#000000"
       style="fill:#ffffff;fill-opacity:0.995968" /><path
       id="path28"
       d="m 24.999995,29.998606 14.3376,-10e-5 c -0.8507,1.4708 -1.3376,3.1784 -1.3376,4.9997 0,5.5133 4.4616,9.9848 9.9711,10.0003 l -22.9711,3e-4 v -3.0002 h 4.00002 v -9 h -4.00002 z m 7,3 v 9 h 5.0438 c -1.2938,-2.0206 -2.0438,-4.4229 -2.0438,-7.0003 0,-0.68 0.0522,-1.3479 0.1528,-1.9997 z"
       stroke-linejoin="round"
       stroke-width="0.2"
       fill-opacity="1"
       fill="#000000"
       style="fill:#ffffff;fill-opacity:0.995968" /><path
       id="path30"
       d="m 70.999995,41.998406 v 8 H 20.000002 L 20,19.99969 l 4.999995,-0.0012 -2,1.999997 2e-5,24.99974 h 44.99998 v -1.9996 l -19.9713,-10e-5 c 2.7859,-0.0078 5.304,-1.1549 7.1127,-3 z"
       stroke-linejoin="round"
       stroke-width="0.2"
       fill-opacity="1"
       fill="#000000"
       style="fill:#ffffff;fill-opacity:0.995968" /></g></g>
</svg>
